<svg width="322" height="594" viewBox="0 0 322 594" fill="none" xmlns="http://www.w3.org/2000/svg">
<g filter="url(#filter0_d_7_91)">
<path d="M325.403 589.378C288.333 586.508 244.243 587.528 202.113 578.938C95.3029 557.188 30.3229 488.798 0.892881 385.188C-2.33712 373.848 3.37287 366.448 15.1629 366.288C32.0629 366.048 48.9729 366.578 65.8629 366.058C73.0729 365.838 75.5229 368.978 77.1929 375.298C98.0529 453.878 153.653 493.148 230.083 504.298C266.813 509.668 304.723 507.998 342.083 507.678C376.983 507.378 412.603 508.578 446.583 502.158C519.073 488.458 570.983 448.248 591.503 373.958C592.393 370.748 597.643 366.718 601.023 366.568C617.483 365.798 634.023 366.008 650.503 366.278C661.613 366.468 666.883 373.768 664.383 384.598C641.383 484.288 553.583 566.668 450.873 581.418C411.653 587.028 371.573 586.638 325.403 589.378Z" fill="#222831"/>
<path d="M332.653 137.697C352.103 117.457 367.993 100.527 384.323 84.0275C407.523 60.6075 431.043 37.4975 454.423 14.2575C468.313 0.447494 475.543 0.547496 489.573 14.7675C491.573 16.7675 493.443 18.8575 495.503 20.7675C515.503 39.4575 516.113 43.6575 495.003 65.7675C471.393 90.4475 446.313 113.768 422.063 137.768C397.233 162.408 372.663 187.308 347.903 212.008C337.523 222.368 330.783 222.488 320.323 212.128C270.063 162.321 219.866 112.447 169.733 62.5075C166.257 59.1658 163.081 55.5251 160.243 51.6275C155.533 44.9275 155.483 38.2175 161.593 32.0475C168.403 25.1875 175.013 18.1875 181.873 11.3775C191.733 1.64749 201.003 1.6575 211.073 11.6375C248.493 48.6975 285.826 85.8442 323.073 123.077C326.403 126.437 328.403 131.187 332.653 137.697Z" fill="#08D9D6"/>
<path d="M254.073 292.038C253.993 334.248 224.713 359.808 184.633 352.648C162.513 348.708 146.833 331.648 141.903 306.118C135.443 272.738 150.453 241.488 177.343 232.318C218.283 218.348 254.153 246.278 254.073 292.038Z" fill="#222831"/>
</g>
<defs>
<filter id="filter0_d_7_91" x="0" y="0" width="683.994" height="593.377" filterUnits="userSpaceOnUse" color-interpolation-filters="sRGB">
<feFlood flood-opacity="0" result="BackgroundImageFix"/>
<feColorMatrix in="SourceAlpha" type="matrix" values="0 0 0 0 0 0 0 0 0 0 0 0 0 0 0 0 0 0 127 0" result="hardAlpha"/>
<feOffset dx="15"/>
<feGaussianBlur stdDeviation="2"/>
<feComposite in2="hardAlpha" operator="out"/>
<feColorMatrix type="matrix" values="0 0 0 0 0 0 0 0 0 0 0 0 0 0 0 0 0 0 0.25 0"/>
<feBlend mode="normal" in2="BackgroundImageFix" result="effect1_dropShadow_7_91"/>
<feBlend mode="normal" in="SourceGraphic" in2="effect1_dropShadow_7_91" result="shape"/>
</filter>
</defs>
</svg>
