<svg width="353" height="594" viewBox="0 0 353 594" fill="none" xmlns="http://www.w3.org/2000/svg">
<g filter="url(#filter0_d_195_90)">
<path d="M-5.59714 589.378C-42.6671 586.508 -86.7571 587.528 -128.887 578.938C-235.697 557.188 -300.677 488.798 -330.107 385.188C-333.337 373.848 -327.627 366.448 -315.837 366.288C-298.937 366.048 -282.027 366.578 -265.137 366.058C-257.927 365.838 -255.477 368.978 -253.807 375.298C-232.947 453.878 -177.347 493.148 -100.917 504.298C-64.1871 509.668 -26.2772 507.998 11.0829 507.678C45.9828 507.378 81.6028 508.578 115.583 502.158C188.073 488.458 239.983 448.248 260.503 373.958C261.393 370.748 266.643 366.718 270.023 366.568C286.483 365.798 303.023 366.008 319.503 366.278C330.613 366.468 335.883 373.768 333.383 384.598C310.383 484.288 222.583 566.668 119.873 581.418C80.6528 587.028 40.5729 586.638 -5.59714 589.378Z" fill="#F5F5F5"/>
<path d="M1.65289 137.697C21.1029 117.457 36.9929 100.527 53.3229 84.0275C76.5229 60.6075 100.043 37.4975 123.423 14.2575C137.313 0.447494 144.543 0.547496 158.573 14.7675C160.573 16.7675 162.443 18.8575 164.503 20.7675C184.503 39.4575 185.113 43.6575 164.003 65.7675C140.393 90.4475 115.313 113.768 91.0629 137.768C66.2329 162.408 41.6629 187.308 16.9029 212.008C6.52289 222.368 -0.217087 222.488 -10.6771 212.128C-60.9371 162.321 -111.134 112.447 -161.267 62.5075C-164.743 59.1658 -167.919 55.5251 -170.757 51.6275C-175.467 44.9275 -175.517 38.2175 -169.407 32.0475C-162.597 25.1875 -155.987 18.1875 -149.127 11.3775C-139.267 1.64749 -129.997 1.6575 -119.927 11.6375C-82.5071 48.6975 -45.1738 85.8442 -7.92709 123.077C-4.59709 126.437 -2.59711 131.187 1.65289 137.697Z" fill="#08D9D6"/>
<path d="M195.903 292.048C195.773 334.568 166.693 360.048 126.653 352.608C124.295 352.156 121.976 351.528 119.713 350.728C91.5227 340.968 76.7127 309.288 84.2627 274.978C91.2627 243.198 115.033 226.308 147.993 229.718C175.683 232.588 195.273 256.598 195.893 288.428C195.913 289.638 195.893 290.848 195.903 292.048Z" fill="#F5F5F5"/>
</g>
<defs>
<filter id="filter0_d_195_90" x="-331" y="0" width="683.994" height="593.377" filterUnits="userSpaceOnUse" color-interpolation-filters="sRGB">
<feFlood flood-opacity="0" result="BackgroundImageFix"/>
<feColorMatrix in="SourceAlpha" type="matrix" values="0 0 0 0 0 0 0 0 0 0 0 0 0 0 0 0 0 0 127 0" result="hardAlpha"/>
<feOffset dx="15"/>
<feGaussianBlur stdDeviation="2"/>
<feComposite in2="hardAlpha" operator="out"/>
<feColorMatrix type="matrix" values="0 0 0 0 0 0 0 0 0 0 0 0 0 0 0 0 0 0 0.25 0"/>
<feBlend mode="normal" in2="BackgroundImageFix" result="effect1_dropShadow_195_90"/>
<feBlend mode="normal" in="SourceGraphic" in2="effect1_dropShadow_195_90" result="shape"/>
</filter>
</defs>
</svg>
