<svg width="182" height="160" viewBox="0 0 182 160" fill="none" xmlns="http://www.w3.org/2000/svg">
<path d="M88.9417 160C78.8094 159.216 66.7584 159.494 55.2431 157.146C26.0489 151.202 8.28809 132.509 0.244049 104.189C-0.6388 101.09 0.9219 99.067 4.14444 99.0233C8.76368 98.9577 13.3857 99.1025 18.0022 98.9604C19.9729 98.9003 20.6425 99.7585 21.099 101.486C26.8006 122.964 41.9976 133.698 62.8881 136.745C72.9274 138.213 83.2893 137.757 93.5008 137.669C103.04 137.587 112.776 137.915 122.064 136.16C141.877 132.416 156.066 121.425 161.674 101.12C161.917 100.242 163.352 99.1408 164.276 99.0998C168.775 98.8894 173.296 98.9467 177.801 99.0205C180.837 99.0725 182.278 101.068 181.594 104.028C175.308 131.276 151.31 153.793 123.236 157.824C112.516 159.358 101.561 159.251 88.9417 160Z" fill="#363C45"/>
<path d="M90.9231 36.5433C96.2394 31.0111 100.583 26.3837 105.046 21.8737C111.387 15.4724 117.816 9.1558 124.206 2.80366C128.003 -0.970999 129.979 -0.943666 133.814 2.94306C134.36 3.48971 134.872 4.06097 135.435 4.58302C140.901 9.69152 141.068 10.8395 135.298 16.8828C128.845 23.6285 121.99 30.0025 115.361 36.5624C108.575 43.2972 101.859 50.1031 95.0914 56.8543C92.2542 59.6859 90.412 59.7187 87.553 56.8871C73.8155 43.2735 60.0954 29.6417 46.3925 15.9917C45.4425 15.0783 44.5745 14.0833 43.7987 13.0179C42.5113 11.1866 42.4976 9.3526 44.1677 7.66616C46.029 5.79113 47.8357 3.87784 49.7107 2.01647C52.4058 -0.643006 54.9395 -0.640272 57.6919 2.08754C67.9199 12.2171 78.1241 22.3703 88.3047 32.5472C89.2148 33.4656 89.7615 34.7639 90.9231 36.5433Z" fill="#363C45"/>
<path d="M69.445 78.7287C69.4231 90.2659 61.4201 97.2521 50.4651 95.2951C44.4191 94.2182 40.1333 89.5552 38.7858 82.5771C37.0201 73.4535 41.1227 64.912 48.4725 62.4056C59.6626 58.5872 69.4669 66.2212 69.445 78.7287Z" fill="#363C45"/>
<path d="M144.017 78.7314C143.982 90.3533 136.033 97.3177 125.089 95.2842C124.445 95.1608 123.811 94.989 123.192 94.7703C115.487 92.1026 111.439 83.4436 113.503 74.0657C115.416 65.3794 121.913 60.7628 130.922 61.6949C138.49 62.4793 143.845 69.0419 144.014 77.742C144.02 78.0727 144.014 78.4034 144.017 78.7314Z" fill="#363C45"/>
</svg>
