<svg width="319" height="321" viewBox="0 0 319 321" fill="none" xmlns="http://www.w3.org/2000/svg">
<path fill-rule="evenodd" clip-rule="evenodd" d="M119.731 29.3352C177.682 16.078 240.086 34.7739 270.912 85.6047C304.924 141.689 307.736 216.678 261.648 263.348C219.039 306.494 151.165 289.082 97.1114 261.599C51.0266 238.167 18.4111 193.678 23.4224 142.222C28.723 87.7951 66.424 41.5301 119.731 29.3352Z" fill="url(#paint0_linear_17_160)"/>
<path d="M157.796 241.529C147.546 240.736 135.355 241.018 123.706 238.643C94.1729 232.629 76.2057 213.719 68.0682 185.07C67.1751 181.934 68.7539 179.888 72.0139 179.844C76.6868 179.778 81.3625 179.924 86.0326 179.78C88.0262 179.72 88.7037 180.588 89.1654 182.335C94.9333 204.063 110.307 214.921 131.44 218.004C141.596 219.489 152.078 219.027 162.409 218.939C172.059 218.856 181.908 219.188 191.303 217.413C211.347 213.625 225.7 202.506 231.374 181.965C231.62 181.077 233.072 179.963 234.006 179.921C238.558 179.709 243.131 179.767 247.688 179.841C250.76 179.894 252.217 181.912 251.526 184.907C245.166 212.472 220.889 235.25 192.489 239.328C181.645 240.88 170.563 240.772 157.796 241.529Z" fill="#F5F5F5"/>
<path d="M159.801 116.638C165.179 111.042 169.573 106.36 174.088 101.798C180.503 95.3223 187.006 88.9323 193.471 82.5063C197.312 78.6878 199.311 78.7155 203.19 82.6474C203.743 83.2004 204.26 83.7783 204.83 84.3064C210.36 89.4742 210.529 90.6356 204.692 96.7491C198.163 103.573 191.229 110.021 184.523 116.657C177.658 123.47 170.864 130.355 164.018 137.185C161.148 140.05 159.284 140.083 156.392 137.218C142.495 123.446 128.615 109.656 114.753 95.8477C113.792 94.9237 112.914 93.917 112.129 92.8393C110.827 90.9867 110.813 89.1314 112.502 87.4253C114.385 85.5285 116.213 83.593 118.11 81.71C120.836 79.0196 123.399 79.0224 126.184 81.7819C136.531 92.0291 146.853 102.3 157.152 112.595C158.073 113.525 158.626 114.838 159.801 116.638Z" fill="#363C45"/>
<path d="M138.074 159.314C138.051 170.985 129.955 178.052 118.873 176.072C112.757 174.983 108.421 170.266 107.058 163.207C105.272 153.977 109.422 145.336 116.857 142.801C128.177 138.938 138.096 146.661 138.074 159.314Z" fill="#F5F5F5"/>
<path d="M213.512 159.316C213.476 171.073 205.436 178.119 194.364 176.061C193.713 175.937 193.071 175.763 192.445 175.542C184.651 172.843 180.556 164.083 182.643 154.596C184.579 145.809 191.151 141.139 200.265 142.082C207.921 142.875 213.338 149.514 213.509 158.315C213.515 158.65 213.509 158.985 213.512 159.316Z" fill="#F5F5F5"/>
<defs>
<linearGradient id="paint0_linear_17_160" x1="132.625" y1="26.6803" x2="186.375" y2="293.472" gradientUnits="userSpaceOnUse">
<stop stop-color="#0099FF"/>
<stop offset="1" stop-color="#08D9D6"/>
</linearGradient>
</defs>
</svg>
