<svg width="341" height="300" viewBox="0 0 341 300" fill="none" xmlns="http://www.w3.org/2000/svg">
<path d="M166.846 300C147.848 298.529 125.252 299.052 103.661 294.65C48.9221 283.503 15.6205 248.454 0.537915 195.355C-1.11743 189.543 1.80888 185.751 7.85114 185.669C16.5122 185.546 25.1784 185.817 33.8344 185.551C37.5294 185.438 38.785 187.047 39.6409 190.286C50.3314 230.558 78.8259 250.683 117.995 256.397C136.819 259.149 156.248 258.294 175.394 258.13C193.28 257.976 211.535 258.591 228.949 255.301C266.1 248.28 292.703 227.672 303.22 189.599C303.676 187.954 306.366 185.889 308.098 185.812C316.534 185.418 325.011 185.525 333.456 185.664C339.15 185.761 341.851 189.502 340.57 195.052C328.783 246.142 283.786 288.361 231.148 295.921C211.048 298.796 190.508 298.596 166.846 300Z" fill="#F5F5F5"/>
<path d="M170.562 68.5186C180.529 58.1458 188.673 49.4694 197.042 41.0133C208.932 29.0108 220.985 17.1671 232.967 5.25686C240.086 -1.82062 243.791 -1.76937 250.981 5.51823C252.006 6.54321 252.965 7.61432 254.02 8.59317C264.27 18.1716 264.583 20.3241 253.764 31.6552C241.664 44.3035 228.811 56.2547 216.383 68.5545C203.658 81.1822 191.066 93.9432 178.377 106.602C173.057 111.911 169.603 111.973 164.243 106.663C138.485 81.1378 112.76 55.5782 87.0667 29.9845C85.2853 28.2719 83.6579 26.4061 82.2032 24.4086C79.7894 20.9749 79.7637 17.5361 82.895 14.3741C86.3851 10.8584 89.7727 7.27095 93.2883 3.78089C98.3415 -1.20564 103.092 -1.20051 108.253 3.91414C127.43 22.907 146.563 41.9443 165.652 61.026C167.358 62.748 168.383 65.1823 170.562 68.5186Z" fill="#363C45"/>
<path d="M130.29 147.616C130.249 169.248 115.243 182.348 94.7029 178.678C83.3666 176.659 75.3307 167.916 72.8042 154.832C69.4935 137.725 77.186 121.71 90.9668 117.01C111.948 109.851 130.331 124.165 130.29 147.616Z" fill="#F5F5F5"/>
<path d="M270.113 147.621C270.046 169.412 255.143 182.471 234.623 178.658C233.415 178.426 232.226 178.104 231.066 177.694C216.619 172.692 209.029 156.457 212.898 138.873C216.486 122.586 228.668 113.93 245.559 115.678C259.75 117.149 269.79 129.454 270.108 145.766C270.118 146.386 270.108 147.006 270.113 147.621Z" fill="#F5F5F5"/>
</svg>
