<svg width="221" height="194" viewBox="0 0 221 194" fill="none" xmlns="http://www.w3.org/2000/svg">
<path d="M107.842 194C95.5564 193.049 80.9445 193.387 66.9822 190.54C31.5843 183.332 10.0493 160.667 0.29591 126.33C-0.774545 122.571 1.1178 120.119 5.02513 120.066C10.626 119.986 16.2301 120.162 21.8276 119.99C24.2171 119.917 25.029 120.957 25.5825 123.052C32.4957 149.094 50.9221 162.109 76.2518 165.804C88.4245 167.584 100.988 167.03 113.37 166.924C124.936 166.825 136.741 167.222 148.002 165.095C172.026 160.554 189.229 147.228 196.03 122.608C196.325 121.544 198.065 120.208 199.185 120.159C204.64 119.904 210.122 119.973 215.583 120.063C219.265 120.126 221.012 122.545 220.183 126.134C212.561 159.172 183.463 186.474 149.424 191.362C136.426 193.221 123.143 193.092 107.842 194Z" fill="#F5F5F5"/>
<path d="M110.245 44.3087C116.691 37.601 121.957 31.9902 127.369 26.5219C135.057 18.7603 142.852 11.1014 150.601 3.39944C155.204 -1.17734 157.6 -1.14419 162.25 3.56846C162.912 4.23128 163.532 4.92392 164.215 5.55692C170.843 11.751 171.045 13.1429 164.049 20.4704C156.225 28.6496 147.913 36.3781 139.876 44.3319C131.647 52.4978 123.504 60.75 115.299 68.9358C111.859 72.3692 109.625 72.409 106.158 68.9755C89.5018 52.4691 72.8661 35.9406 56.2514 19.39C55.0995 18.2825 54.0471 17.0759 53.1063 15.7842C51.5454 13.5638 51.5288 11.34 53.5537 9.29522C55.8106 7.02175 58.0013 4.70188 60.2747 2.44498C63.5424 -0.779644 66.6146 -0.77633 69.9519 2.53114C82.3533 14.8132 94.7259 27.124 107.07 39.4635C108.173 40.577 108.836 42.1512 110.245 44.3087Z" fill="#F5F5F5"/>
<path d="M84.202 95.4585C84.1755 109.447 74.4718 117.918 61.1889 115.545C53.8581 114.239 48.6616 108.586 47.0277 100.125C44.8868 89.0622 49.8613 78.7057 58.7729 75.6666C72.3408 71.0368 84.2285 80.2931 84.202 95.4585Z" fill="#F5F5F5"/>
<path d="M174.621 95.4621C174.578 109.554 164.941 117.998 151.671 115.532C150.89 115.383 150.121 115.174 149.371 114.909C140.028 111.675 135.12 101.176 137.622 89.8049C139.942 79.2727 147.82 73.6752 158.743 74.8053C167.92 75.7564 174.412 83.7136 174.618 94.2624C174.624 94.6634 174.618 95.0644 174.621 95.4621Z" fill="#F5F5F5"/>
</svg>
